<?xml version="1.0" encoding="UTF-8"?>
<svg width="110px" height="28px" viewBox="0 0 110 28" version="1.1" xmlns="http://www.w3.org/2000/svg" xmlns:xlink="http://www.w3.org/1999/xlink">
    <!-- Generator: Sketch 49.3 (51167) - http://www.bohemiancoding.com/sketch -->
    <title>Logo</title>
    <desc>Created with Sketch.</desc>
    <defs></defs>
    <g id="Page-1" stroke="none" stroke-width="1" fill="none" fill-rule="evenodd">
        <g id="Design" transform="translate(-30.000000, -30.000000)">
            <g id="Header" transform="translate(30.000000, 30.000000)">
                <g id="Logo">
                    <path d="M31.1642618,24.0663579 C31.1642618,24.2689449 30.9044863,24.4350935 30.5824414,24.4350935 L29.6920175,24.4350935 C29.3707955,24.4350935 29.110197,24.2689449 29.110197,24.0663579 L29.110197,22.8967918 C29.110197,22.6928452 29.3707955,22.5277844 29.6920175,22.5277844 L30.5824414,22.5277844 C30.9044863,22.5277844 31.1642618,22.6928452 31.1642618,22.8967918 L31.1642618,24.0663579 Z M30.980197,22.0187335 L28.5434638,22.0187335 C28.2897232,22.0187335 28.0837132,22.2224082 28.0837132,22.4744863 L28.0837132,25.9287988 C28.0837132,26.015816 28.2005711,26.0870614 28.3443117,26.0870614 L28.8495985,26.0870614 C28.9925162,26.0870614 29.110197,26.015816 29.110197,25.9287988 L29.110197,25.3120641 C29.110197,25.1086613 29.3707955,24.9425128 29.6920175,24.9425128 L30.980197,24.9425128 C31.6495237,24.9425128 32.1934888,24.5076985 32.1934888,23.9719986 L32.1934888,22.9903354 C32.1934888,22.4538197 31.6495237,22.0187335 30.980197,22.0187335 Z" id="Fill-1" fill="#9B9B9B"></path>
                    <path d="M35.9168105,24.97441 C35.9168105,25.3080667 35.6416733,25.5778202 35.3031696,25.5778202 L34.3540424,25.5778202 C34.0155387,25.5778202 33.7395786,25.3080667 33.7395786,24.97441 L33.7395786,23.13182 C33.7395786,22.7976194 34.0155387,22.527594 34.3540424,22.527594 L35.3031696,22.527594 C35.6416733,22.527594 35.9168105,22.7976194 35.9168105,23.13182 L35.9168105,24.97441 Z M35.7332943,22.0185432 L33.925015,22.0185432 C33.254591,22.0185432 32.7125461,22.4536294 32.7125461,22.990417 L32.7125461,25.115813 C32.7125461,25.6517848 33.254591,26.086871 33.925015,26.086871 L35.7332943,26.086871 C36.401798,26.086871 36.9443915,25.6517848 36.9443915,25.115813 L36.9443915,22.990417 C36.9443915,22.4536294 36.401798,22.0185432 35.7332943,22.0185432 Z" id="Fill-3" fill="#9B9B9B"></path>
                    <path d="M15.8272993,24.97441 C15.8272993,25.3080667 15.5521621,25.5778202 15.2131097,25.5778202 L14.2637082,25.5778202 C13.9252045,25.5778202 13.6500673,25.3080667 13.6500673,24.97441 L13.6500673,23.13182 C13.6500673,22.7976194 13.9252045,22.527594 14.2637082,22.527594 L15.2131097,22.527594 C15.5521621,22.527594 15.8272993,22.7976194 15.8272993,23.13182 L15.8272993,24.97441 Z M15.643783,22.0185432 L13.8341322,22.0185432 C13.1653541,22.0185432 12.6230349,22.4536294 12.6230349,22.990417 L12.6230349,25.115813 C12.6230349,25.6517848 13.1653541,26.086871 13.8341322,26.086871 L15.643783,26.086871 C16.3117382,26.086871 16.8548803,25.6517848 16.8548803,25.115813 L16.8548803,22.990417 C16.8548803,22.4536294 16.3117382,22.0185432 15.643783,22.0185432 Z" id="Fill-5" fill="#9B9B9B"></path>
                    <path d="M62.8621471,24.97441 C62.8621471,25.3080667 62.5853641,25.5778202 62.2476833,25.5778202 L61.2974589,25.5778202 C60.9592294,25.5778202 60.6849152,25.3080667 60.6849152,24.97441 L60.6849152,23.13182 C60.6849152,22.7976194 60.9592294,22.527594 61.2974589,22.527594 L62.2476833,22.527594 C62.5853641,22.527594 62.8621471,22.7976194 62.8621471,23.13182 L62.8621471,24.97441 Z M62.6772594,22.0185432 L60.8681571,22.0185432 C60.1988304,22.0185432 59.6565112,22.4536294 59.6565112,22.990417 L59.6565112,25.115813 C59.6565112,25.6517848 60.1988304,26.086871 60.8681571,26.086871 L62.6772594,26.086871 C63.3460374,26.086871 63.8897282,25.6517848 63.8897282,25.115813 L63.8897282,22.990417 C63.8897282,22.4536294 63.3460374,22.0185432 62.6772594,22.0185432 Z" id="Fill-7" fill="#9B9B9B"></path>
                    <path d="M71.9396983,24.6289244 C72.1854838,24.6289244 72.2691496,24.4921442 72.2803965,24.4758284 C72.3583017,24.3659692 72.6957082,23.8824796 72.770596,23.7669099 C72.8485012,23.6565067 72.9453342,23.5433843 73.0056833,23.4857354 C73.0632893,23.4329812 73.1266559,23.410955 73.1620424,23.410955 C73.1795985,23.410955 73.2218429,23.4057883 73.2218429,23.4550074 L73.2218429,25.9287444 C73.2218429,26.0157616 73.3389751,26.087007 73.4816185,26.087007 L73.9871796,26.087007 C74.1309202,26.087007 74.2475037,26.0157616 74.2475037,25.9287444 L74.2480524,22.2046785 C74.2480524,22.1021613 74.1652095,22.0186791 74.0615187,22.0186791 L73.6368803,22.0186791 C73.5378529,22.0186791 73.382591,22.0396177 73.2372045,22.1899943 C73.2171796,22.2112048 73.1968803,22.2351345 73.1771297,22.2620555 C73.1436633,22.3093711 72.5569052,23.1882452 72.4043865,23.4202005 C72.3936883,23.4359724 72.3821671,23.4514724 72.369,23.4667004 C72.2823167,23.5670421 72.1679277,23.6377436 72.0916683,23.647805 C72.0916683,23.647805 72.0376284,23.6548752 71.9396983,23.6548752 C71.8420424,23.6548752 71.7877282,23.647805 71.7877282,23.647805 C71.7111945,23.6377436 71.5968055,23.5670421 71.5106708,23.4667004 C71.498601,23.4514724 71.4859825,23.4359724 71.47501,23.4202005 C71.3211197,23.1882452 70.7365561,22.3093711 70.7017182,22.2620555 C70.6822419,22.2351345 70.6630399,22.2112048 70.642192,22.1899943 C70.4976284,22.0396177 70.341818,22.0186791 70.2425162,22.0186791 L69.8187007,22.0186791 C69.7155586,22.0186791 69.6310698,22.1021613 69.6310698,22.2046785 L69.6310698,25.9287444 C69.6310698,26.0157616 69.7490249,26.087007 69.892217,26.087007 L70.3964065,26.087007 C70.5404214,26.087007 70.6581022,26.0157616 70.6581022,25.9287444 L70.6581022,23.4550074 C70.6581022,23.4057883 70.699798,23.410955 70.7170798,23.410955 C70.7535636,23.410955 70.8122668,23.4297181 70.8739875,23.4857354 C70.9381771,23.5433843 71.0306209,23.6565067 71.1088005,23.7669099 C71.1850599,23.8824796 71.5205461,24.3659692 71.599,24.4758284 C71.6116185,24.4921442 71.694187,24.6289244 71.9396983,24.6289244" id="Fill-9" fill="#9B9B9B"></path>
                    <path d="M40.5455885,24.0663579 C40.5455885,24.2689449 40.2844414,24.4350935 39.9626708,24.4350935 L39.0733441,24.4350935 C38.7512993,24.4350935 38.4909751,24.2689449 38.4909751,24.0663579 L38.4909751,22.8967918 C38.4909751,22.6928452 38.7512993,22.5277844 39.0733441,22.5277844 L39.9626708,22.5277844 C40.2844414,22.5277844 40.5455885,22.6928452 40.5455885,22.8967918 L40.5455885,24.0663579 Z M41.1008005,24.7399258 C41.113419,24.7347591 41.1263117,24.7298644 41.141399,24.7257854 C41.1477082,24.7195311 41.1477082,24.7149083 41.1477082,24.7094697 C41.4072095,24.5319002 41.5739925,24.2670414 41.5739925,23.9719986 L41.5739925,22.9903354 C41.5739925,22.4538197 41.0303017,22.0187335 40.3609751,22.0187335 L37.9239676,22.0187335 C37.6705012,22.0187335 37.4650399,22.2224082 37.4650399,22.4744863 L37.4650399,25.9287988 C37.4650399,26.015816 37.5818978,26.0870614 37.7250898,26.0870614 L38.2303766,26.0870614 C38.3738429,26.0870614 38.4909751,26.015816 38.4909751,25.9287988 L38.4909751,25.3120641 C38.4909751,25.1086613 38.7512993,24.9425128 39.0733441,24.9425128 L39.7904015,24.9425128 L40.122596,25.8877375 C40.122596,25.8877375 40.242197,26.088693 40.5014239,26.0876052 C40.7708005,26.0851579 41.2184813,26.0756404 41.2184813,26.0756404 C41.2184813,26.0756404 41.4755137,26.0500791 41.3616733,25.8619043 C41.2533192,25.6875979 40.9855885,25.1094771 40.9855885,25.1094771 C40.9855885,25.1094771 40.8651646,24.9158637 41.0023217,24.7945835 C41.035788,24.77718 41.0700773,24.7595046 41.1008005,24.7399258 Z" id="Fill-11" fill="#9B9B9B"></path>
                    <path d="M82.5109726,24.0663579 C82.5109726,24.2689449 82.2500998,24.4350935 81.9294264,24.4350935 L81.0390025,24.4350935 C80.7177805,24.4350935 80.457182,24.2689449 80.457182,24.0663579 L80.457182,22.8967918 C80.457182,22.6928452 80.7177805,22.5277844 81.0390025,22.5277844 L81.9294264,22.5277844 C82.2500998,22.5277844 82.5109726,22.6928452 82.5109726,22.8967918 L82.5109726,24.0663579 Z M83.0661845,24.7399258 C83.078803,24.7347591 83.0922444,24.7298644 83.1078803,24.7257854 C83.1130923,24.7195311 83.1125436,24.7149083 83.1125436,24.7094697 C83.3734165,24.5319002 83.5388279,24.2670414 83.5388279,23.9719986 L83.5388279,22.9903354 C83.5388279,22.4538197 82.9965087,22.0187335 82.3263591,22.0187335 L79.8901746,22.0187335 C79.6361596,22.0187335 79.4306983,22.2224082 79.4306983,22.4744863 L79.4306983,25.9287988 C79.4306983,26.015816 79.5459102,26.0870614 79.6904738,26.0870614 L80.1960349,26.0870614 C80.3400499,26.0870614 80.457182,26.015816 80.457182,25.9287988 L80.457182,25.3120641 C80.457182,25.1086613 80.7177805,24.9425128 81.0390025,24.9425128 L81.7566085,24.9425128 L82.08798,25.8877375 C82.08798,25.8877375 82.2078554,26.088693 82.4670823,26.0876052 C82.7361845,26.0851579 83.1846883,26.0756404 83.1846883,26.0756404 C83.1846883,26.0756404 83.4411721,26.0500791 83.3273317,25.8619043 C83.2192519,25.6875979 82.9509726,25.1094771 82.9509726,25.1094771 C82.9509726,25.1094771 82.8310973,24.9158637 82.9693516,24.7945835 C83.0017207,24.77718 83.035187,24.7595046 83.0661845,24.7399258 Z" id="Fill-13" fill="#9B9B9B"></path>
                    <path d="M25.1459451,24.0663579 C25.1459451,24.2689449 24.8858953,24.4350935 24.5641247,24.4350935 L23.6737007,24.4350935 C23.3522045,24.4350935 23.0910574,24.2689449 23.0910574,24.0663579 L23.0910574,22.8967918 C23.0910574,22.6928452 23.3522045,22.5277844 23.6737007,22.5277844 L24.5641247,22.5277844 C24.8858953,22.5277844 25.1459451,22.6928452 25.1459451,22.8967918 L25.1459451,24.0663579 Z M25.7003342,24.7399258 C25.7137756,24.7347591 25.726394,24.7298644 25.7423042,24.7257854 C25.7486135,24.7195311 25.7477905,24.7149083 25.7477905,24.7094697 C26.0086633,24.5319002 26.1735262,24.2670414 26.1735262,23.9719986 L26.1735262,22.9903354 C26.1735262,22.4538197 25.631207,22.0187335 24.9610574,22.0187335 L22.5243242,22.0187335 C22.2708579,22.0187335 22.0653965,22.2224082 22.0653965,22.4744863 L22.0653965,25.9287988 C22.0653965,26.015816 22.1814314,26.0870614 22.3251721,26.0870614 L22.8312818,26.0870614 C22.9747481,26.0870614 23.0910574,26.015816 23.0910574,25.9287988 L23.0910574,25.3120641 C23.0910574,25.1086613 23.3522045,24.9425128 23.6737007,24.9425128 L24.3907581,24.9425128 L24.7226783,25.8877375 C24.7226783,25.8877375 24.8431022,26.088693 25.1023292,26.0876052 C25.3708828,26.0851579 25.8193865,26.0756404 25.8193865,26.0756404 C25.8193865,26.0756404 26.076419,26.0500791 25.9617556,25.8619043 C25.8542244,25.6875979 25.5864938,25.1094771 25.5864938,25.1094771 C25.5864938,25.1094771 25.4652469,24.9158637 25.6032269,24.7945835 C25.6372419,24.77718 25.669611,24.7595046 25.7003342,24.7399258 Z" id="Fill-15" fill="#9B9B9B"></path>
                    <path d="M21.2372419,22.0233019 L20.3750723,22.0233019 C20.2310574,22.0233019 20.1147481,22.0942754 20.1147481,22.1818365 L20.1147481,22.6248086 L20.1240748,22.6248086 L20.1240748,25.1842031 C20.1240748,25.3076589 20.0571421,25.414255 19.9216309,25.505895 C19.786394,25.5959035 19.6226284,25.6410437 19.4289626,25.6410437 C19.2413317,25.6410437 19.0814065,25.5959035 18.9453466,25.505895 C18.8092868,25.414255 18.7429027,25.3076589 18.7429027,25.1842031 L18.7429027,22.6248086 L18.744,22.6248086 L18.744,22.1818365 C18.744,22.0942754 18.6276908,22.0233019 18.4842244,22.0233019 L17.6215062,22.0233019 C17.4780399,22.0233019 17.3609077,22.0942754 17.3609077,22.1818365 L17.3609077,22.3235114 L17.3609077,22.6248086 L17.3609077,25.1842031 C17.3609077,25.4349216 17.4980648,25.6483857 17.7712818,25.8262272 C18.0439501,26.0040687 18.3679152,26.0927175 18.7429027,26.0927175 L20.1240748,26.0927175 C20.4993367,26.0927175 20.8216559,26.002981 21.0918554,25.8237799 C21.3617805,25.6437629 21.4972918,25.4311146 21.4972918,25.1842031 L21.4972918,22.6248086 L21.4972918,22.3235114 L21.4972918,22.1818365 C21.4972918,22.0942754 21.3815312,22.0233019 21.2372419,22.0233019" id="Fill-17" fill="#9B9B9B"></path>
                    <path d="M12.1229875,22.1716119 C12.1229875,22.0837789 12.0044838,22.0130774 11.8577257,22.0130774 L11.0087232,22.0130774 C10.8616908,22.0130774 10.7437357,22.0837789 10.7437357,22.1716119 L10.7437357,22.6143121 L10.7437357,23.3727218 C10.7437357,23.4961775 10.6765287,23.6019578 10.5404688,23.6906066 C10.4049576,23.7795274 10.2414663,23.8243956 10.0486234,23.8243956 C9.86126683,23.8243956 9.7005187,23.7795274 9.56391022,23.6906066 C9.42922195,23.6019578 9.36174065,23.4961775 9.36174065,23.3727218 L9.36174065,22.247752 L9.35982045,22.247752 L9.35982045,22.1716119 C9.35982045,22.0837789 9.24213965,22.0130774 9.09483292,22.0130774 L8.24665337,22.0130774 C8.09989526,22.0130774 7.97974564,22.0837789 7.97974564,22.1716119 L7.97974564,22.247752 L7.97974564,22.6143121 L7.97974564,23.3727218 C7.97974564,23.880413 8.43318703,24.1934031 9.15902244,24.2605695 C9.20099252,24.2649204 9.28136658,24.2796046 9.32443392,24.3342623 C9.38450873,24.411762 9.36174065,24.5330423 9.36174065,24.5330423 L9.36174065,25.6438717 L9.36338653,25.6438717 L9.36338653,25.9345637 C9.36338653,26.0221248 9.48161596,26.0925544 9.62919701,26.0925544 L10.4779252,26.0925544 C10.6246833,26.0925544 10.7437357,26.0221248 10.7437357,25.9345637 L10.7437357,25.6438717 L10.7437357,24.5583316 C10.7437357,24.5583316 10.7341347,24.4123058 10.7807681,24.3413324 C10.8238354,24.2760695 10.9050324,24.2480608 10.9533117,24.2415345 C11.7743342,24.132763 12.1166783,23.8757902 12.1166783,23.3727218 L12.1166783,22.6143121 L12.1229875,22.6143121 L12.1229875,22.1716119 Z" id="Fill-19" fill="#9B9B9B"></path>
                    <path d="M54.0713641,25.5744483 L52.8830349,25.5744483 L52.8830349,25.5741763 L52.5214888,25.5741763 C52.3769252,25.5741763 52.2600673,25.5042906 52.2600673,25.4161857 L52.2600673,24.7959159 L52.2595187,24.7959159 L52.2595187,22.6142306 L52.2611646,22.6142306 L52.2611646,22.1715303 C52.2611646,22.0839693 52.145404,22.0129958 52.001389,22.0129958 L51.1389451,22.0129958 C50.9943815,22.0129958 50.8780723,22.0839693 50.8780723,22.1715303 L50.8780723,22.5677307 L50.8780723,22.6142306 L50.8780723,25.4849837 L50.8780723,25.6717988 L50.8780723,25.9284997 C50.8780723,26.0157888 50.9938329,26.0927447 51.1389451,26.0927447 L51.2448304,26.0927447 L51.2467506,26.0927447 L54.3283965,26.0927447 L54.0713641,25.5744483 Z" id="Fill-21" fill="#9B9B9B"></path>
                    <path d="M59.2221347,22.5214756 L59.4791671,22.0129686 L59.2081446,22.0129686 L57.9309377,22.0129686 L56.8863491,22.0129686 L55.7065237,22.0129686 L55.3381197,22.0129686 L55.5940549,22.5214756 L56.7198404,22.5214756 L56.7198404,25.5137809 L56.7228579,25.5137809 L56.7228579,25.9284725 C56.7228579,26.0157616 56.8386185,26.087007 56.9818105,26.087007 L57.8343791,26.087007 C57.9770224,26.087007 58.0949776,26.0157616 58.0949776,25.9284725 L58.0949776,25.4849565 L58.093606,25.4849565 L58.093606,22.5214756 L59.2221347,22.5214756 Z" id="Fill-23" fill="#9B9B9B"></path>
                    <path d="M87.430414,22.5214756 L87.6874464,22.0129686 L87.4164239,22.0129686 L86.1389426,22.0129686 L85.0946284,22.0129686 L83.9142544,22.0129686 L83.5466733,22.0129686 L83.8031571,22.5214756 L84.9275711,22.5214756 L84.9275711,25.5137809 L84.9311372,25.5137809 L84.9311372,25.9284725 C84.9311372,26.0157616 85.0471721,26.087007 85.1900898,26.087007 L86.0418354,26.087007 C86.1853017,26.087007 86.3024339,26.0157616 86.3024339,25.9284725 L86.3024339,25.4849565 L86.301611,25.4849565 L86.301611,22.5214756 L87.430414,22.5214756 Z" id="Fill-25" fill="#9B9B9B"></path>
                    <path d="M94.3737182,22.1747935 C94.3737182,22.0872324 94.2557631,22.015987 94.1125711,22.015987 L93.6078329,22.015987 C93.4643666,22.015987 93.3480574,22.0872324 93.3480574,22.1747935 L93.3480574,25.9255084 C93.3480574,26.0127976 93.4643666,26.0837711 93.6078329,26.0837711 L94.1125711,26.0837711 C94.2557631,26.0837711 94.3737182,26.0127976 94.3737182,25.9255084 L94.3737182,22.1747935 Z" id="Fill-27" fill="#9B9B9B"></path>
                    <path d="M92.8106209,25.5744483 L91.6225661,25.5744483 L91.6225661,25.5741763 L91.2615686,25.5741763 C91.116182,25.5741763 90.9998728,25.5042906 90.9998728,25.4161857 L90.9998728,24.7959159 L90.9990499,24.7959159 L90.9990499,22.6142306 L91.0009701,22.6142306 L91.0009701,22.1715303 C91.0009701,22.0839693 90.8852095,22.0129958 90.7406459,22.0129958 L89.8787506,22.0129958 C89.7344613,22.0129958 89.6173292,22.0839693 89.6173292,22.1715303 L89.6173292,22.5677307 L89.6173292,22.6142306 L89.6173292,25.4849837 L89.6173292,25.6717988 L89.6173292,25.9284997 C89.6173292,26.0157888 89.7344613,26.0927447 89.8787506,26.0927447 L89.9840873,26.0927447 L89.9860075,26.0927447 L93.0676534,26.0927447 L92.8106209,25.5744483 Z" id="Fill-29" fill="#9B9B9B"></path>
                    <path d="M100.24898,25.5841289 C100.131299,25.5740676 100.040227,25.5166906 100.027608,25.4449014 L100.027608,24.4624223 C100.033095,24.3830191 100.133768,24.3188439 100.263244,24.3120457 L101.288082,24.3120457 C101.359953,24.3120457 101.418107,24.253309 101.418107,24.1804321 L101.418107,23.924819 C101.418107,23.8522139 101.359953,23.7940212 101.288082,23.7940212 L100.225663,23.7940212 C100.117858,23.7782493 100.038307,23.7227758 100.027608,23.6553374 L100.027608,22.6812882 C100.031449,22.5950868 100.145838,22.5273765 100.287384,22.5273765 L100.650302,22.5273765 L101.851249,22.5273765 L102.095663,22.012887 L99.4899526,22.012887 L99.0145661,22.012887 L99.0118229,22.012887 L98.9369352,22.012887 L98.906212,22.012887 C98.762197,22.012887 98.6456135,22.089571 98.6456135,22.1768602 L98.6456135,22.3356666 L98.6456135,22.4332891 L98.6456135,22.62092 L98.6456135,23.3415315 L98.6456135,24.7642634 L98.6456135,25.4851468 L98.6456135,25.671962 L98.6456135,25.8052071 L98.6456135,25.9283909 C98.6456135,26.0156801 98.762197,26.0926359 98.906212,26.0926359 L98.9939925,26.0926359 L99.0118229,26.0926359 L99.0145661,26.0926359 L99.4899526,26.0926359 L102.095663,26.0926359 L101.840002,25.5841289 L100.24898,25.5841289 Z" id="Fill-31" fill="#9B9B9B"></path>
                    <path d="M96.4586708,22.5274581 L98.0186958,22.5274581 L98.2743566,22.0129686 L95.2467506,22.0129686 L95.2442818,22.0159598 L95.1946309,22.0159598 L95.1921621,22.0159598 L95.0854539,22.0159598 C94.9417132,22.0159598 94.825404,22.0923719 94.825404,22.179661 L94.825404,22.4369057 L94.825404,22.5742298 L94.825404,22.6234489 L94.825404,23.3440605 L94.825404,24.5788895 L94.825404,25.5170441 L94.825404,25.6962452 L94.825404,25.9333672 C94.825404,26.0217441 94.9444564,26.0927175 95.0898429,26.0927175 L95.9459776,26.0927175 C96.0891696,26.0927175 96.2068504,26.0217441 96.2068504,25.9333672 L96.2068504,25.6962452 L96.2068504,25.4879477 L96.2068504,24.5788895 L96.2068504,24.4625039 C96.2104165,24.3885393 96.2968254,24.3265395 96.4131347,24.3121272 L97.4544314,24.3121272 C97.5260274,24.3121272 97.584182,24.2533906 97.584182,24.1805137 L97.584182,23.9249005 C97.584182,23.8522955 97.5260274,23.7938308 97.4544314,23.7938308 L96.8243317,23.7938308 L96.8243317,23.793287 L96.4622369,23.793287 C96.3349551,23.793287 96.2296185,23.7367258 96.2068504,23.6635769 L96.2068504,22.6781066 C96.2123367,22.5951683 96.3220623,22.5293616 96.4586708,22.5274581" id="Fill-33" fill="#9B9B9B"></path>
                    <path d="M47.7543741,22.5979692 C47.8876908,22.5085046 48.0484389,22.4636363 48.2338753,22.4636363 C48.4239751,22.4636363 48.5866434,22.5085046 48.7202344,22.5979692 C48.8538254,22.686618 48.9207581,22.7948457 48.9207581,22.9212926 L48.9207581,24.3233579 C48.8872918,24.3785595 48.8041746,24.4177172 48.7056958,24.4247874 L47.7818055,24.4247874 C47.6685137,24.4174453 47.5768928,24.3668665 47.5541247,24.2997001 L47.5541247,22.9212926 C47.5541247,22.7948457 47.6210574,22.686618 47.7543741,22.5979692 M49.8781147,22.2819879 C49.6114813,22.1019709 49.2913566,22.0130502 48.9207581,22.0130502 L47.5541247,22.0130502 C47.1827032,22.0130502 46.8625786,22.101699 46.5926534,22.2792686 C46.3224539,22.4571101 46.1877656,22.6711181 46.1877656,22.9212926 L46.1877656,25.4850381 L46.1877656,25.5745027 L46.1877656,25.928554 C46.1877656,26.0158432 46.3043491,26.0870886 46.4469925,26.0870886 L47.2984638,26.0870886 C47.4424788,26.0870886 47.5590623,26.0158432 47.5590623,25.928554 L47.5590623,25.4850381 L47.5541247,25.4850381 L47.5541247,25.0640922 C47.5755212,25.0023643 47.6545237,24.9545048 47.7557456,24.9419961 L48.7177656,24.9419961 C48.8231022,24.9547768 48.9034763,25.0064432 48.9207581,25.0717062 L48.9207581,25.4850381 L48.9193865,25.4850381 L48.9193865,25.928554 C48.9193865,26.0158432 49.0345985,26.0870886 49.1772419,26.0870886 L50.0204838,26.0870886 C50.1634015,26.0870886 50.2791621,26.0158432 50.2791621,25.928554 L50.2791621,25.5745027 L50.2791621,25.4850381 L50.2791621,22.9212926 C50.2791621,22.6746531 50.1452968,22.4617328 49.8781147,22.2819879" id="Fill-35" fill="#9B9B9B"></path>
                    <path d="M76.1888803,22.5979692 C76.3219227,22.5085046 76.4812993,22.4636363 76.6672843,22.4636363 C76.858207,22.4636363 77.0195037,22.5085046 77.1544663,22.5979692 C77.287783,22.686618 77.35499,22.7948457 77.35499,22.9212926 L77.35499,24.3233579 C77.3207007,24.3785595 77.2386808,24.4177172 77.1393791,24.4247874 L76.2154888,24.4247874 C76.102197,24.4174453 76.0105761,24.3668665 75.9889052,24.2997001 L75.9889052,22.9212926 C75.9889052,22.7948457 76.0552893,22.686618 76.1888803,22.5979692 M78.3107007,22.2819879 C78.0448903,22.1019709 77.7261372,22.0130502 77.35499,22.0130502 L75.9889052,22.0130502 C75.6166608,22.0130502 75.2959875,22.101699 75.0271596,22.2792686 C74.7564115,22.4571101 74.6217232,22.6711181 74.6217232,22.9212926 L74.6217232,25.4850381 L74.6217232,25.5745027 L74.6217232,25.928554 C74.6217232,26.0158432 74.7380324,26.0870886 74.8809501,26.0870886 L75.7326958,26.0870886 C75.8758878,26.0870886 75.9924713,26.0158432 75.9924713,25.928554 L75.9924713,25.4850381 L75.9889052,25.4850381 L75.9889052,25.0640922 C76.0092045,25.0023643 76.0890299,24.9545048 76.1894289,24.9419961 L77.1514489,24.9419961 C77.2562369,24.9547768 77.3371596,25.0064432 77.35499,25.0717062 L77.35499,25.4850381 L77.3533441,25.4850381 L77.3533441,25.928554 C77.3533441,26.0158432 77.4682818,26.0870886 77.6111995,26.0870886 L78.4555387,26.0870886 C78.5965362,26.0870886 78.7122968,26.0158432 78.7122968,25.928554 L78.7122968,25.5745027 L78.7122968,25.4850381 L78.7122968,22.9212926 C78.7122968,22.6746531 78.5800773,22.4617328 78.3107007,22.2819879" id="Fill-37" fill="#9B9B9B"></path>
                    <path d="M45.9638429,22.0129414 L45.6939177,22.0129414 L44.4156135,22.0129414 L43.3715736,22.0129414 L42.1906509,22.0129414 L41.8230698,22.0129414 L42.0795536,22.5214484 L42.5815486,22.5214484 L42.5815486,22.5222642 L42.9433691,22.5222642 C43.0876584,22.5222642 43.203419,22.5926938 43.203419,22.6794391 L43.203419,23.3013404 L43.2050648,23.3013404 L43.2050648,25.5140257 L43.2075337,25.5140257 L43.2075337,25.9284453 C43.2075337,26.0157344 43.3241172,26.0869798 43.4675835,26.0869798 L44.3190549,26.0869798 C44.4616983,26.0869798 44.5788304,26.0157344 44.5788304,25.9284453 L44.5788304,25.4852012 L44.5782818,25.4852012 L44.5782818,23.3013404 L44.5793791,23.3013404 L44.5793791,22.6794391 C44.5793791,22.5926938 44.6959626,22.5222642 44.8394289,22.5222642 L45.2020723,22.5222642 L45.2020723,22.5214484 L45.7076334,22.5214484 L45.9638429,22.0129414 Z" id="Fill-39" fill="#9B9B9B"></path>
                    <path d="M68.3896883,23.004802 C68.3896883,23.092635 68.5062718,23.1641523 68.6502868,23.1641523 L68.8255736,23.1641523 C68.9687656,23.1641523 69.0853491,23.092635 69.0853491,23.004802 L69.0853491,22.8968462 L69.0820574,22.8968462 C69.0164963,22.3081202 68.5578429,22.0130774 67.7041771,22.0130774 L67.0178429,22.0130774 C66.6362718,22.0130774 66.3123067,22.1019981 66.0412843,22.282015 C65.7713591,22.4614881 65.6361222,22.6746803 65.6361222,22.9213198 L65.6361222,23.1443015 C65.6361222,23.3768007 65.7713591,23.5905368 66.0412843,23.7860536 L67.5047506,24.8637078 C67.6380673,24.9613302 67.7041771,25.0684702 67.7041771,25.1843119 C67.7041771,25.333057 67.6506858,25.4464513 67.542606,25.524223 C67.4350748,25.6019947 67.2611596,25.6408805 67.0178429,25.6408805 C66.8458479,25.6408805 66.6886658,25.608249 66.5460224,25.5429861 C66.4028304,25.4779951 66.3304115,25.3839077 66.3304115,25.2609959 L66.3304115,25.23761 L66.3323317,25.23761 L66.3323317,25.1299261 C66.3323317,25.0418212 66.2151995,24.9705758 66.0720075,24.9705758 L65.8964464,24.9705758 C65.7532544,24.9705758 65.6361222,25.0418212 65.6361222,25.1299261 L65.6361222,25.23761 L65.6388653,25.23761 C65.6514838,25.5157932 65.7664214,25.7254504 65.983404,25.8671253 C66.2146509,26.017502 66.5600125,26.0925544 67.0178429,26.0925544 L67.7041771,26.0925544 C68.0851995,26.0925544 68.4105362,26.0028178 68.680187,25.8236167 C68.9509352,25.6438717 69.0853491,25.4312233 69.0853491,25.1843119 L69.0853491,24.9613302 C69.0853491,24.7326381 68.9509352,24.51863 68.680187,24.3193062 L67.2161721,23.2424678 C67.083404,23.1410384 67.0178429,23.0336265 67.0178429,22.9213198 C67.0178429,22.7690397 67.0776434,22.6542857 67.1999875,22.5789614 C67.3209601,22.5022774 67.5033791,22.4636635 67.7450499,22.4636635 C68.1098878,22.4636635 68.3241272,22.6091455 68.3924314,22.8968462 L68.3896883,22.8968462 L68.3896883,23.004802 Z" id="Fill-41" fill="#9B9B9B"></path>
                    <path d="M1.86942394,26.3776174 C1.66341397,26.1478375 1.48812718,25.9017419 1.34932419,25.6480322 C1.21299002,25.4005769 1.1062818,25.1368059 1.03468579,24.8656929 C0.964461347,24.5972991 0.92825187,24.3245544 0.92825187,24.0528975 C0.92825187,23.7826002 0.964461347,23.5093116 1.03386284,23.2414617 C1.1062818,22.9698047 1.21216708,22.7054899 1.35014713,22.456675 C1.48867581,22.2032373 1.66341397,21.9576855 1.87024688,21.7273617 C1.99588279,21.5867745 2.13523441,21.4491785 2.28665586,21.3181088 L1.69057107,20.8857419 C1.44835162,21.0796271 1.22944888,21.2862931 1.03578304,21.5038362 C0.805084788,21.7643441 0.609498753,22.0387203 0.457254364,22.3193509 C0.304735661,22.5950868 0.188975062,22.8827875 0.112715711,23.1764707 C0.0372793017,23.4638995 -2.74314214e-05,23.7592143 -2.74314214e-05,24.0528975 C-2.74314214e-05,24.3473964 0.0372793017,24.6421673 0.112715711,24.9290523 C0.188975062,25.2230074 0.304735661,25.5104362 0.456705736,25.7850844 C0.608950125,26.0668027 0.804261845,26.3414509 1.03523441,26.6027745 C1.22944888,26.8197737 1.44835162,27.0272555 1.69002244,27.220053 L2.28665586,26.7876861 C2.13578304,26.6571603 1.99670574,26.5201081 1.86942394,26.3776174" id="Fill-43" fill="#9B9B9B"></path>
                    <path d="M3.62890274,24.983846 C3.54605985,24.834557 3.48433915,24.681461 3.44428928,24.5267335 C3.40314214,24.3763568 3.38174564,24.2164627 3.38174564,24.0527615 C3.38174564,23.8896042 3.40314214,23.7286223 3.44483791,23.5757982 C3.48488778,23.4232461 3.54605985,23.2704221 3.62835411,23.1224928 C3.71256858,22.9723881 3.81433915,22.831257 3.93064838,22.7015469 C3.96713217,22.6610295 4.00663342,22.6205121 4.04695761,22.5810824 L3.52521197,22.2033732 C3.40259352,22.3061623 3.29067332,22.4138462 3.18917706,22.5264247 C3.05092269,22.6814242 2.93269327,22.846485 2.83778055,23.0167125 C2.74588529,23.1850365 2.67566085,23.3579832 2.63012469,23.5298423 C2.58541147,23.7044206 2.56182045,23.8806305 2.56182045,24.0538492 C2.56182045,24.226796 2.58458853,24.402462 2.63012469,24.5762246 C2.67566085,24.7491713 2.74588529,24.9218462 2.83778055,25.0898982 C2.93461347,25.2623011 3.05284289,25.4273619 3.18917706,25.5796421 C3.29012469,25.6916768 3.40259352,25.7996326 3.52658354,25.9024217 L4.04695761,25.5249844 C4.00663342,25.4850109 3.96713217,25.4450373 3.93009975,25.404248 C3.81241895,25.2726344 3.71119701,25.1315033 3.62890274,24.983846" id="Fill-46" fill="#9B9B9B"></path>
                    <path d="M5.29807731,23.5315282 C5.24513466,23.5880894 5.20371322,23.6446506 5.17079551,23.7047469 C5.14007232,23.76158 5.11538404,23.8203167 5.10057107,23.876606 C5.0857581,23.9361584 5.07725436,23.9935354 5.07725436,24.0528159 C5.07725436,24.1110087 5.0857581,24.1694734 5.10057107,24.2271223 C5.11538404,24.2850431 5.13870075,24.3435078 5.17079551,24.4014287 C5.20371322,24.4604373 5.24513466,24.5167265 5.29341397,24.5694807 C5.30383791,24.580086 5.31316459,24.5906912 5.32331421,24.6010245 L6.07987282,24.0533597 L5.32331421,23.5048792 C5.31453616,23.513309 5.30630673,23.5228265 5.29807731,23.5315282" id="Fill-48" fill="#9B9B9B"></path>
                    <path d="M107.936471,21.7280144 C108.143579,21.9577943 108.318865,22.2038899 108.456845,22.4573276 C108.593728,22.7047829 108.699888,22.9688258 108.771758,23.2399389 C108.841983,23.5083327 108.877369,23.7810774 108.877369,24.0524624 C108.877369,24.3227597 108.841983,24.5963201 108.772307,24.8641701 C108.699888,25.135827 108.594277,25.3998699 108.456571,25.6486849 C108.318317,25.9023945 108.143579,26.1482182 107.936471,26.37827 C107.811658,26.5194011 107.670935,26.6564533 107.519514,26.787523 L108.116147,27.219618 C108.357818,27.0262765 108.577544,26.8193387 108.770112,26.6017956 C109.001908,26.3412877 109.196671,26.0669115 109.349464,25.7860089 C109.501983,25.510545 109.61692,25.2231162 109.694002,24.9291611 C109.769165,24.6414603 109.806746,24.3469613 109.806746,24.0524624 C109.806746,23.7585073 109.769165,23.4631925 109.694002,23.1765795 C109.61692,22.8828963 109.501983,22.5951955 109.350012,22.3202754 C109.196671,22.0388291 109.002456,21.763637 108.770661,21.5028572 C108.577544,21.285858 108.357818,21.0786482 108.116696,20.8853068 L107.519514,21.3179456 C107.670112,21.4484715 107.810012,21.5857956 107.936471,21.7280144" id="Fill-50" fill="#9B9B9B"></path>
                    <path d="M106.17809,23.1220305 C106.26011,23.2710476 106.322379,23.4241435 106.362703,23.578871 C106.403302,23.7289758 106.42415,23.8894138 106.42415,24.0525711 C106.42415,24.2162723 106.403302,24.3769823 106.362155,24.5303502 C106.321007,24.6823584 106.26011,24.8354544 106.178638,24.9836556 C106.09415,25.1337603 105.992379,25.2746195 105.875796,25.4043296 C105.839037,25.444847 105.800085,25.4848205 105.760035,25.5245221 L106.280958,25.9019594 C106.404125,25.7994422 106.516045,25.6917584 106.616993,25.5791798 C106.755247,25.4247242 106.874025,25.2593915 106.96784,25.0888921 C107.060833,24.9202962 107.131057,24.7478933 107.176045,24.5754904 C107.221581,24.4014559 107.244349,24.2247021 107.244349,24.0517554 C107.244349,23.8788086 107.221581,23.7036864 107.176045,23.5291081 C107.131057,23.3569771 107.060284,23.1840303 106.96784,23.0157063 C106.872105,22.8435754 106.75415,22.6782426 106.616993,22.5259624 C106.516594,22.4139277 106.404125,22.3062439 106.280135,22.2034548 L105.760035,22.5808921 C105.800085,22.6203218 105.839586,22.6611111 105.876618,22.7016285 C105.994848,22.8332421 106.095521,22.9741012 106.17809,23.1220305" id="Fill-52" fill="#9B9B9B"></path>
                    <path d="M104.508092,24.5738316 C104.560486,24.5172704 104.603279,24.4609811 104.636197,24.4011568 C104.667469,24.3443236 104.690786,24.2853151 104.706421,24.2290258 C104.72096,24.1692014 104.72919,24.1118244 104.72919,24.0525439 C104.72919,23.994895 104.72096,23.9358865 104.706421,23.8785095 C104.690786,23.8203167 104.668017,23.7626678 104.636197,23.704475 C104.603279,23.6451945 104.561035,23.5889052 104.512207,23.536151 C104.50288,23.5252739 104.492731,23.5143967 104.483404,23.5048792 L103.726845,24.052272 L104.483404,24.6010245 C104.491359,24.5920508 104.500686,24.5833491 104.508092,24.5738316" id="Fill-54" fill="#9B9B9B"></path>
                    <path d="M82.2020948,9.66089867 C83.1111721,9.66089867 83.418404,9.15429518 83.4644888,9.09338311 C83.7530673,8.68875294 84.9990025,6.8989171 85.2782544,6.47090105 C85.5682045,6.06219195 85.9204239,5.64369342 86.1467332,5.42995732 C86.3574065,5.23308082 86.594414,5.15313373 86.7263591,5.15313373 C86.7905486,5.15313373 86.9474564,5.1349145 86.9474564,5.31710684 L86.9474564,14.4715924 C86.9474564,14.7954597 87.378404,15.0567833 87.9111222,15.0567833 L89.7808479,15.0567833 C90.3130175,15.0567833 90.7458853,14.7954597 90.7458853,14.4715924 L90.7458853,0.689421273 C90.7458853,0.307905063 90.4342643,8.1578662e-05 90.052419,8.1578662e-05 L88.4852618,8.1578662e-05 C88.1163092,8.1578662e-05 87.5377805,0.0775813076 87.0061596,0.633131996 C86.9312718,0.711447512 86.8558354,0.800096324 86.7825935,0.90016615 C86.6553117,1.07474449 84.4934414,4.33109275 83.9225935,5.1876687 C83.8808978,5.24586148 83.8383791,5.30242268 83.79202,5.35952775 C83.4713466,5.73152644 83.0508229,5.99121852 82.7674564,6.03010435 C82.7674564,6.03010435 82.5641895,6.05620952 82.2020948,6.05620952 C81.8416459,6.05620952 81.6400249,6.03010435 81.6400249,6.03010435 C81.3555611,5.99121852 80.9344888,5.73152644 80.6124439,5.35952775 C80.5669077,5.30242268 80.5216459,5.24586148 80.4846135,5.1876687 C79.9129426,4.33109275 77.7488778,1.07474449 77.6191272,0.90016615 C77.5486284,0.800096324 77.4756608,0.711447512 77.3947382,0.633131996 C76.865586,0.0775813076 76.2908978,8.1578662e-05 75.9194763,8.1578662e-05 L74.3509476,8.1578662e-05 C73.9677307,8.1578662e-05 73.6583042,0.307905063 73.6583042,0.689421273 L73.6618703,14.4715924 C73.6618703,14.7954597 74.0922693,15.0567833 74.6241646,15.0567833 L76.4952618,15.0567833 C77.0255112,15.0567833 77.4570075,14.7954597 77.4570075,14.4715924 L77.4586534,5.31710684 C77.4586534,5.1349145 77.6130923,5.15313373 77.6775561,5.15313373 C77.8097756,5.15313373 78.0286783,5.22138788 78.2577307,5.42995732 C78.492818,5.64369342 78.8376309,6.06219195 79.1295012,6.47090105 C79.4065586,6.8989171 80.6519451,8.68875294 80.9399751,9.09338311 C80.9846883,9.15429518 81.2932918,9.66089867 82.2020948,9.66089867" id="Fill-56" fill="#FFFFFF"></path>
                    <path d="M101.186312,9.66089867 C102.09484,9.66089867 102.403718,9.15429518 102.44706,9.09338311 C102.73701,8.68875294 103.984317,6.8989171 104.260002,6.47090105 C104.551324,6.06219195 104.905464,5.64369342 105.132047,5.42995732 C105.342721,5.23308082 105.5811,5.15313373 105.711673,5.15313373 C105.774491,5.15313373 105.930576,5.1349145 105.930576,5.31710684 L105.930576,14.4715924 C105.930576,14.7954597 106.36509,15.0567833 106.894791,15.0567833 L108.766162,15.0567833 C109.297509,15.0567833 109.727908,14.7954597 109.727908,14.4715924 L109.730102,0.689421273 C109.730102,0.307905063 109.421224,8.1578662e-05 109.037733,8.1578662e-05 L107.468382,8.1578662e-05 C107.100252,8.1578662e-05 106.525289,0.0775813076 105.990102,0.633131996 C105.915763,0.711447512 105.839504,0.800096324 105.765988,0.90016615 C105.640626,1.07474449 103.476287,4.33109275 102.905713,5.1876687 C102.866212,5.24586148 102.823968,5.30242268 102.775963,5.35952775 C102.453643,5.73152644 102.034217,5.99121852 101.74893,6.03010435 C101.74893,6.03010435 101.548681,6.05620952 101.186312,6.05620952 C100.825589,6.05620952 100.624791,6.03010435 100.624791,6.03010435 C100.340052,5.99121852 99.9184314,5.73152644 99.5963865,5.35952775 C99.5508504,5.30242268 99.5053142,5.24586148 99.4666359,5.1876687 C98.896611,4.33109275 96.7322718,1.07474449 96.6077332,0.90016615 C96.5339426,0.800096324 96.4585062,0.711447512 96.3808753,0.633131996 C95.8492544,0.0775813076 95.2734688,8.1578662e-05 94.9058878,8.1578662e-05 L93.3359875,8.1578662e-05 C92.9527706,8.1578662e-05 92.6427955,0.307905063 92.6427955,0.689421273 L92.6427955,14.4715924 C92.6427955,14.7954597 93.0759377,15.0567833 93.6075586,15.0567833 L95.4775586,15.0567833 C96.0091796,15.0567833 96.4409501,14.7954597 96.4409501,14.4715924 L96.4409501,5.31710684 C96.4409501,5.1349145 96.5995037,5.15313373 96.6620474,5.15313373 C96.7945411,5.15313373 97.0112494,5.22138788 97.2416733,5.42995732 C97.4767606,5.64369342 97.8207506,6.06219195 98.1107007,6.47090105 C98.3905012,6.8989171 99.6353392,8.68875294 99.9244663,9.09338311 C99.9691796,9.15429518 100.278057,9.66089867 101.186312,9.66089867" id="Fill-58" fill="#FFFFFF"></path>
                    <path d="M67.9605237,10.9383389 C67.9605237,12.1734399 66.9400748,13.1744101 65.6867332,13.1744101 L62.1730424,13.1744101 C60.9205237,13.1744101 59.9011721,12.1734399 59.9011721,10.9383389 L59.9011721,4.11863472 C59.9011721,2.88217413 60.9205237,1.88473902 62.1730424,1.88473902 L65.6867332,1.88473902 C66.9400748,1.88473902 67.9605237,2.88217413 67.9605237,4.11863472 L67.9605237,10.9383389 Z M67.2794015,0 L60.5836658,0 C58.1057855,0 56.0986284,1.60981893 56.0986284,3.59653128 L56.0986284,11.4628897 C56.0986284,13.4479705 58.1057855,15.0569737 60.5836658,15.0569737 L67.2794015,15.0569737 C69.7531671,15.0569737 71.7625187,13.4479705 71.7625187,11.4628897 L71.7625187,3.59653128 C71.7625187,1.60981893 69.7531671,0 67.2794015,0 Z" id="Fill-60" fill="#FFFFFF"></path>
                    <path d="M31.8765736,0.000108771549 L30.0038304,0.000108771549 C29.4922344,0.000108771549 29.077197,0.243757042 29.043182,0.548045452 L29.043182,4.35205846 C29.043182,5.58688748 28.0268479,6.5892173 26.7702145,6.5892173 L23.256798,6.5892173 C21.9993416,6.5892173 20.9824589,5.58688748 20.9824589,4.35205846 L20.9791671,0.58937864 C20.9791671,0.264151708 20.5471222,0.000108771549 20.013581,0.000108771549 L18.1433067,0.000108771549 C17.6114115,0.000108771549 17.1812868,0.264151708 17.1812868,0.58937864 L17.1812868,14.4716196 C17.1812868,14.7954868 17.6114115,15.0568105 18.1433067,15.0568105 L18.6335062,15.0568105 L19.5269476,15.0568105 L20.013581,15.0568105 C20.5471222,15.0568105 20.9791671,14.7954868 20.9791671,14.4716196 L20.9824589,10.7073082 C20.9824589,9.47220722 21.9993416,8.46906161 23.256798,8.46906161 L26.7702145,8.46906161 C28.0268479,8.46906161 29.043182,9.47220722 29.043182,10.7073082 L29.043182,14.5086019 C29.077197,14.8150657 29.4922344,15.0568105 30.0038304,15.0568105 L31.8760249,15.0568105 C32.406,15.0568105 32.8424339,14.7954868 32.8424339,14.4716196 L32.8424339,0.58937864 C32.8424339,0.264151708 32.4095661,0.000108771549 31.8765736,0.000108771549" id="Fill-62" fill="#FFFFFF"></path>
                    <path d="M47.451394,13.1744644 C46.194212,13.1744644 45.1778778,12.1734943 45.1778778,10.9383933 L45.1778778,4.1186891 C45.1778778,2.88222852 46.194212,1.88479341 47.451394,1.88479341 L48.8130898,1.88479341 L51.9298479,1.88479341 L53.3466808,1.88479341 L54.2000723,1.88479341 L55.1486509,5.43857747e-05 L53.3466808,5.43857747e-05 L51.9298479,5.43857747e-05 L48.8130898,5.43857747e-05 L45.8672294,5.43857747e-05 C43.390995,5.43857747e-05 41.3797232,1.60987332 41.3797232,3.59658567 L41.3797232,11.4629441 C41.3797232,13.447753 43.390995,15.0567561 45.8672294,15.0567561 L55.1486509,15.0567561 L54.2000723,13.1744644 L47.451394,13.1744644 Z" id="Fill-64" fill="#FFFFFF"></path>
                    <path d="M38.0448853,0.000108771549 L36.1754339,0.000108771549 C35.6421671,0.000108771549 35.2120424,0.264151708 35.2120424,0.58937864 L35.2120424,7.00526848 L35.2120424,14.4716196 C35.2120424,14.7954868 35.6421671,15.0568105 36.1754339,15.0568105 L38.0448853,15.0568105 C38.5778778,15.0568105 39.0082768,14.7954868 39.0082768,14.4716196 L39.0082768,7.00526848 L39.0082768,0.58937864 C39.0082768,0.264151708 38.5778778,0.000108771549 38.0448853,0.000108771549" id="Fill-66" fill="#FFFFFF"></path>
                    <path d="M11.4784589,7.57759718 C11.4784589,8.33056823 10.5131471,8.9424082 9.32234913,8.9424082 L6.02783541,8.9424082 C4.83895761,8.9424082 3.87309726,8.33056823 3.87309726,7.57759718 L3.87309726,3.81546122 L3.87309726,3.24876144 C3.87309726,2.49551846 4.83895761,1.88476621 6.02783541,1.88476621 L6.76217456,1.88476621 L9.32234913,1.88476621 C10.5131471,1.88476621 11.4784589,2.49551846 11.4784589,3.24876144 L11.4784589,7.57759718 Z M10.7954165,2.71928873e-05 L1.77706234,2.71928873e-05 C0.837261845,2.71928873e-05 0.0760399002,0.754901746 0.0760399002,1.68816164 L0.0760399002,14.471538 C0.0760399002,14.7954053 0.505890274,15.0567289 1.03833416,15.0567289 L2.91052868,15.0567289 C3.44105237,15.0567289 3.87309726,14.7954053 3.87309726,14.471538 L3.87309726,12.1881512 C3.87309726,11.435724 4.83895761,10.8219806 6.02783541,10.8219806 L10.7954165,10.8219806 C13.2727481,10.8219806 15.283197,9.21324935 15.283197,7.22789665 L15.283197,3.59655847 C15.283197,1.60984612 13.2727481,2.71928873e-05 10.7954165,2.71928873e-05 Z" id="Fill-68" fill="#FFFFFF"></path>
                </g>
            </g>
        </g>
    </g>
</svg>